<mxfile host="app.diagrams.net" modified="2024-06-26T15:37:06.599Z" agent="Mozilla/5.0 (Windows NT 10.0; Win64; x64) AppleWebKit/537.36 (KHTML, like Gecko) Chrome/126.0.0.0 Safari/537.36 Edg/126.0.0.0" etag="7IJGC-drQf3h-b7IAOeJ" version="24.6.3" type="github">
  <diagram name="第 1 页" id="Te7wpRWQvnTpZzfU_cKO">
    <mxGraphModel dx="2338" dy="951" grid="1" gridSize="10" guides="1" tooltips="1" connect="1" arrows="1" fold="1" page="1" pageScale="1" pageWidth="827" pageHeight="1169" math="0" shadow="0">
      <root>
        <mxCell id="0" />
        <mxCell id="1" parent="0" />
        <mxCell id="id-Jjma-5_dawjfT9T-a-1" value="" style="rounded=0;whiteSpace=wrap;html=1;fillColor=#f5f5f5;fontColor=#333333;strokeColor=#666666;" vertex="1" parent="1">
          <mxGeometry x="-50" y="270" width="860" height="395" as="geometry" />
        </mxCell>
        <mxCell id="id-Jjma-5_dawjfT9T-a-2" value="" style="endArrow=none;dashed=1;html=1;dashPattern=1 3;strokeWidth=2;rounded=0;" edge="1" parent="1">
          <mxGeometry width="50" height="50" relative="1" as="geometry">
            <mxPoint x="230" y="647.5" as="sourcePoint" />
            <mxPoint x="230" y="287.5" as="targetPoint" />
          </mxGeometry>
        </mxCell>
        <mxCell id="id-Jjma-5_dawjfT9T-a-3" value="" style="endArrow=none;dashed=1;html=1;dashPattern=1 3;strokeWidth=2;rounded=0;" edge="1" parent="1">
          <mxGeometry width="50" height="50" relative="1" as="geometry">
            <mxPoint x="520" y="647.5" as="sourcePoint" />
            <mxPoint x="520" y="287.5" as="targetPoint" />
          </mxGeometry>
        </mxCell>
        <mxCell id="id-Jjma-5_dawjfT9T-a-4" value="&lt;font color=&quot;#c4c4c4&quot; style=&quot;font-size: 18px;&quot;&gt;View&lt;/font&gt;" style="text;html=1;strokeColor=none;fillColor=none;align=center;verticalAlign=middle;whiteSpace=wrap;rounded=0;" vertex="1" parent="1">
          <mxGeometry x="30" y="270" width="80" height="40" as="geometry" />
        </mxCell>
        <mxCell id="id-Jjma-5_dawjfT9T-a-5" value="&lt;font color=&quot;#c4c4c4&quot; style=&quot;font-size: 18px;&quot;&gt;ViewModel&lt;/font&gt;" style="text;html=1;strokeColor=none;fillColor=none;align=center;verticalAlign=middle;whiteSpace=wrap;rounded=0;" vertex="1" parent="1">
          <mxGeometry x="330" y="270" width="80" height="40" as="geometry" />
        </mxCell>
        <mxCell id="id-Jjma-5_dawjfT9T-a-6" value="&lt;font color=&quot;#c4c4c4&quot; style=&quot;font-size: 18px;&quot;&gt;Model&lt;/font&gt;" style="text;html=1;strokeColor=none;fillColor=none;align=center;verticalAlign=middle;whiteSpace=wrap;rounded=0;" vertex="1" parent="1">
          <mxGeometry x="615" y="270" width="80" height="40" as="geometry" />
        </mxCell>
        <mxCell id="id-Jjma-5_dawjfT9T-a-7" value="&lt;font style=&quot;font-size: 16px;&quot; color=&quot;#000000&quot;&gt;MediaStoreUtils&lt;/font&gt;" style="rounded=1;whiteSpace=wrap;html=1;fontSize=18;" vertex="1" parent="1">
          <mxGeometry x="590" y="540" width="130" height="50" as="geometry" />
        </mxCell>
        <mxCell id="id-Jjma-5_dawjfT9T-a-8" value="LastPlayedManager" style="rounded=1;whiteSpace=wrap;html=1;fontSize=16;fontColor=#000000;" vertex="1" parent="1">
          <mxGeometry x="580" y="360" width="160" height="50" as="geometry" />
        </mxCell>
        <mxCell id="id-Jjma-5_dawjfT9T-a-9" value="GramophonePlaybcakService" style="rounded=1;whiteSpace=wrap;html=1;fontSize=16;" vertex="1" parent="1">
          <mxGeometry x="545" y="445" width="230" height="50" as="geometry" />
        </mxCell>
        <mxCell id="id-Jjma-5_dawjfT9T-a-10" value="MainActivity" style="rounded=1;whiteSpace=wrap;html=1;fontSize=16;" vertex="1" parent="1">
          <mxGeometry x="70" y="440" width="120" height="60" as="geometry" />
        </mxCell>
        <mxCell id="id-Jjma-5_dawjfT9T-a-11" value="Fragments" style="rounded=1;whiteSpace=wrap;html=1;fontSize=16;fontColor=#000000;" vertex="1" parent="1">
          <mxGeometry x="-22.5" y="520" width="120" height="60" as="geometry" />
        </mxCell>
        <mxCell id="id-Jjma-5_dawjfT9T-a-12" value="" style="rounded=1;whiteSpace=wrap;html=1;fontSize=16;fontColor=#000000;" vertex="1" parent="1">
          <mxGeometry x="-30" y="320" width="175" height="90" as="geometry" />
        </mxCell>
        <mxCell id="id-Jjma-5_dawjfT9T-a-13" value="MyRecyclerView" style="rounded=1;whiteSpace=wrap;html=1;fontSize=16;fontColor=#000000;" vertex="1" parent="1">
          <mxGeometry x="10" y="610" width="140" height="40" as="geometry" />
        </mxCell>
        <mxCell id="id-Jjma-5_dawjfT9T-a-14" value="PlayerBottomSheet" style="rounded=1;whiteSpace=wrap;html=1;fontSize=16;fontColor=#000000;" vertex="1" parent="1">
          <mxGeometry x="-10" y="370" width="140" height="20" as="geometry" />
        </mxCell>
        <mxCell id="id-Jjma-5_dawjfT9T-a-15" value="FullBottomSheet" style="rounded=1;whiteSpace=wrap;html=1;fontSize=16;" vertex="1" parent="1">
          <mxGeometry x="-5" y="335" width="130" height="25" as="geometry" />
        </mxCell>
        <mxCell id="id-Jjma-5_dawjfT9T-a-16" value="LibraryViewModel" style="rounded=1;whiteSpace=wrap;html=1;fontSize=16;fontColor=#000000;" vertex="1" parent="1">
          <mxGeometry x="297" y="535" width="146" height="60" as="geometry" />
        </mxCell>
        <mxCell id="id-Jjma-5_dawjfT9T-a-17" value="MediaControllerViewModel" style="rounded=1;whiteSpace=wrap;html=1;fontSize=16;fontColor=#000000;" vertex="1" parent="1">
          <mxGeometry x="262.5" y="435" width="220" height="70" as="geometry" />
        </mxCell>
        <mxCell id="id-Jjma-5_dawjfT9T-a-18" value="LifecyclerCallbackList" style="rounded=1;whiteSpace=wrap;html=1;fontSize=16;fontColor=#000000;" vertex="1" parent="1">
          <mxGeometry x="280" y="330" width="180" height="60" as="geometry" />
        </mxCell>
        <mxCell id="id-Jjma-5_dawjfT9T-a-19" value="" style="rounded=0;whiteSpace=wrap;html=1;fontSize=16;fontColor=#333333;fillColor=#f5f5f5;strokeColor=#666666;" vertex="1" parent="1">
          <mxGeometry x="280" y="720" width="300" height="170" as="geometry" />
        </mxCell>
        <mxCell id="id-Jjma-5_dawjfT9T-a-20" value="&lt;font color=&quot;#c4c4c4&quot; style=&quot;font-size: 18px;&quot;&gt;Utils&lt;/font&gt;" style="text;html=1;strokeColor=none;fillColor=none;align=center;verticalAlign=middle;whiteSpace=wrap;rounded=0;" vertex="1" parent="1">
          <mxGeometry x="392.5" y="730" width="80" height="40" as="geometry" />
        </mxCell>
        <mxCell id="id-Jjma-5_dawjfT9T-a-21" value="各个Utils" style="rounded=1;whiteSpace=wrap;html=1;fontSize=16;fontColor=#000000;" vertex="1" parent="1">
          <mxGeometry x="297.5" y="770" width="80" height="40" as="geometry" />
        </mxCell>
        <mxCell id="id-Jjma-5_dawjfT9T-a-22" value="CircularShuffleOrder" style="rounded=1;whiteSpace=wrap;html=1;fontSize=16;fontColor=#000000;" vertex="1" parent="1">
          <mxGeometry x="392.5" y="770" width="160" height="40" as="geometry" />
        </mxCell>
        <mxCell id="id-Jjma-5_dawjfT9T-a-23" value="Exoplayer相关" style="rounded=1;whiteSpace=wrap;html=1;fontSize=16;fontColor=#000000;" vertex="1" parent="1">
          <mxGeometry x="322.5" y="830" width="140" height="50" as="geometry" />
        </mxCell>
        <mxCell id="id-Jjma-5_dawjfT9T-a-24" value="LyricUtils" style="rounded=1;whiteSpace=wrap;html=1;fontSize=16;fontColor=#000000;" vertex="1" parent="1">
          <mxGeometry x="486.5" y="837.5" width="76" height="35" as="geometry" />
        </mxCell>
        <mxCell id="id-Jjma-5_dawjfT9T-a-25" value="" style="endArrow=none;html=1;rounded=0;fontSize=16;fontColor=#000000;" edge="1" parent="1">
          <mxGeometry width="50" height="50" relative="1" as="geometry">
            <mxPoint x="420" y="720" as="sourcePoint" />
            <mxPoint x="420" y="665" as="targetPoint" />
          </mxGeometry>
        </mxCell>
        <mxCell id="id-Jjma-5_dawjfT9T-a-26" value="" style="rounded=0;whiteSpace=wrap;html=1;fontSize=16;fontColor=#333333;fillColor=#f5f5f5;strokeColor=#666666;" vertex="1" parent="1">
          <mxGeometry x="-70" y="720" width="270" height="170" as="geometry" />
        </mxCell>
        <mxCell id="id-Jjma-5_dawjfT9T-a-27" value="&lt;font color=&quot;#c4c4c4&quot; style=&quot;font-size: 18px;&quot;&gt;Adapter&lt;/font&gt;" style="text;html=1;strokeColor=none;fillColor=none;align=center;verticalAlign=middle;whiteSpace=wrap;rounded=0;" vertex="1" parent="1">
          <mxGeometry x="20" y="730" width="80" height="40" as="geometry" />
        </mxCell>
        <mxCell id="id-Jjma-5_dawjfT9T-a-28" value="各个Adapter" style="rounded=1;whiteSpace=wrap;html=1;fontSize=16;fontColor=#000000;" vertex="1" parent="1">
          <mxGeometry x="-60" y="780" width="120" height="40" as="geometry" />
        </mxCell>
        <mxCell id="id-Jjma-5_dawjfT9T-a-29" value="ViewPager2Adapter" style="rounded=1;whiteSpace=wrap;html=1;fontSize=16;" vertex="1" parent="1">
          <mxGeometry x="30" y="830" width="160" height="50" as="geometry" />
        </mxCell>
        <mxCell id="id-Jjma-5_dawjfT9T-a-30" value="" style="endArrow=classic;html=1;rounded=0;fontSize=16;fontColor=#000000;entryX=0.5;entryY=1;entryDx=0;entryDy=0;" edge="1" parent="1" source="id-Jjma-5_dawjfT9T-a-26" target="id-Jjma-5_dawjfT9T-a-13">
          <mxGeometry width="50" height="50" relative="1" as="geometry">
            <mxPoint x="320" y="590" as="sourcePoint" />
            <mxPoint x="370" y="540" as="targetPoint" />
          </mxGeometry>
        </mxCell>
        <mxCell id="id-Jjma-5_dawjfT9T-a-31" value="assist" style="text;html=1;strokeColor=none;fillColor=none;align=center;verticalAlign=middle;whiteSpace=wrap;rounded=0;fontSize=16;fontColor=#000000;" vertex="1" parent="1">
          <mxGeometry x="-20" y="670" width="60" height="30" as="geometry" />
        </mxCell>
        <mxCell id="id-Jjma-5_dawjfT9T-a-32" value="" style="endArrow=classic;html=1;rounded=0;fontSize=16;fontColor=#000000;" edge="1" parent="1" source="id-Jjma-5_dawjfT9T-a-11" target="id-Jjma-5_dawjfT9T-a-10">
          <mxGeometry width="50" height="50" relative="1" as="geometry">
            <mxPoint x="320" y="590" as="sourcePoint" />
            <mxPoint x="370" y="540" as="targetPoint" />
          </mxGeometry>
        </mxCell>
        <mxCell id="id-Jjma-5_dawjfT9T-a-33" value="" style="endArrow=classic;html=1;rounded=0;fontSize=16;fontColor=#000000;" edge="1" parent="1" source="id-Jjma-5_dawjfT9T-a-13" target="id-Jjma-5_dawjfT9T-a-11">
          <mxGeometry width="50" height="50" relative="1" as="geometry">
            <mxPoint x="320" y="590" as="sourcePoint" />
            <mxPoint x="370" y="540" as="targetPoint" />
          </mxGeometry>
        </mxCell>
        <mxCell id="id-Jjma-5_dawjfT9T-a-34" value="" style="endArrow=classic;html=1;rounded=0;fontSize=16;fontColor=#000000;" edge="1" parent="1" source="id-Jjma-5_dawjfT9T-a-12" target="id-Jjma-5_dawjfT9T-a-10">
          <mxGeometry width="50" height="50" relative="1" as="geometry">
            <mxPoint x="320" y="590" as="sourcePoint" />
            <mxPoint x="370" y="540" as="targetPoint" />
          </mxGeometry>
        </mxCell>
        <mxCell id="id-Jjma-5_dawjfT9T-a-35" value="" style="endArrow=classic;html=1;rounded=0;fontSize=16;fontColor=#000000;" edge="1" parent="1" source="id-Jjma-5_dawjfT9T-a-17" target="id-Jjma-5_dawjfT9T-a-10">
          <mxGeometry width="50" height="50" relative="1" as="geometry">
            <mxPoint x="250" y="470" as="sourcePoint" />
            <mxPoint x="370" y="440" as="targetPoint" />
          </mxGeometry>
        </mxCell>
        <mxCell id="id-Jjma-5_dawjfT9T-a-36" value="" style="endArrow=classic;html=1;rounded=0;fontSize=16;fontColor=#000000;" edge="1" parent="1" source="id-Jjma-5_dawjfT9T-a-7" target="id-Jjma-5_dawjfT9T-a-16">
          <mxGeometry width="50" height="50" relative="1" as="geometry">
            <mxPoint x="320" y="490" as="sourcePoint" />
            <mxPoint x="370" y="440" as="targetPoint" />
          </mxGeometry>
        </mxCell>
        <mxCell id="id-Jjma-5_dawjfT9T-a-37" value="" style="endArrow=classic;html=1;rounded=0;fontSize=16;fontColor=#000000;" edge="1" parent="1" source="id-Jjma-5_dawjfT9T-a-7" target="id-Jjma-5_dawjfT9T-a-26">
          <mxGeometry width="50" height="50" relative="1" as="geometry">
            <mxPoint x="320" y="690" as="sourcePoint" />
            <mxPoint x="370" y="640" as="targetPoint" />
            <Array as="points">
              <mxPoint x="655" y="950" />
              <mxPoint x="65" y="950" />
            </Array>
          </mxGeometry>
        </mxCell>
        <mxCell id="id-Jjma-5_dawjfT9T-a-38" value="provide" style="text;html=1;strokeColor=none;fillColor=none;align=center;verticalAlign=middle;whiteSpace=wrap;rounded=0;fontSize=16;fontColor=#000000;" vertex="1" parent="1">
          <mxGeometry x="630" y="760" width="60" height="30" as="geometry" />
        </mxCell>
        <mxCell id="id-Jjma-5_dawjfT9T-a-39" value="" style="endArrow=classic;html=1;rounded=0;fontSize=16;fontColor=#000000;" edge="1" parent="1" source="id-Jjma-5_dawjfT9T-a-17" target="id-Jjma-5_dawjfT9T-a-9">
          <mxGeometry width="50" height="50" relative="1" as="geometry">
            <mxPoint x="320" y="490" as="sourcePoint" />
            <mxPoint x="370" y="440" as="targetPoint" />
          </mxGeometry>
        </mxCell>
        <mxCell id="id-Jjma-5_dawjfT9T-a-40" value="register" style="text;html=1;strokeColor=none;fillColor=none;align=center;verticalAlign=middle;whiteSpace=wrap;rounded=0;fontSize=16;fontColor=#000000;" vertex="1" parent="1">
          <mxGeometry x="482.5" y="435" width="60" height="30" as="geometry" />
        </mxCell>
        <mxCell id="id-Jjma-5_dawjfT9T-a-41" value="" style="endArrow=classic;html=1;rounded=0;fontSize=16;fontColor=#000000;" edge="1" parent="1" source="id-Jjma-5_dawjfT9T-a-9" target="id-Jjma-5_dawjfT9T-a-8">
          <mxGeometry width="50" height="50" relative="1" as="geometry">
            <mxPoint x="320" y="580" as="sourcePoint" />
            <mxPoint x="370" y="530" as="targetPoint" />
          </mxGeometry>
        </mxCell>
        <mxCell id="id-Jjma-5_dawjfT9T-a-42" value="use" style="text;strokeColor=none;fillColor=none;align=left;verticalAlign=middle;spacingLeft=4;spacingRight=4;overflow=hidden;points=[[0,0.5],[1,0.5]];portConstraint=eastwest;rotatable=0;fontSize=16;fontColor=#000000;" vertex="1" parent="1">
          <mxGeometry x="660" y="440" width="50" height="30" as="geometry" />
        </mxCell>
        <mxCell id="id-Jjma-5_dawjfT9T-a-43" value="" style="endArrow=classic;html=1;rounded=0;fontSize=16;fontColor=#000000;" edge="1" parent="1" source="id-Jjma-5_dawjfT9T-a-16" target="id-Jjma-5_dawjfT9T-a-10">
          <mxGeometry width="50" height="50" relative="1" as="geometry">
            <mxPoint x="320" y="580" as="sourcePoint" />
            <mxPoint x="370" y="530" as="targetPoint" />
          </mxGeometry>
        </mxCell>
        <mxCell id="id-Jjma-5_dawjfT9T-a-44" value="" style="endArrow=classic;html=1;rounded=0;fontSize=16;fontColor=#000000;" edge="1" parent="1" source="id-Jjma-5_dawjfT9T-a-16" target="id-Jjma-5_dawjfT9T-a-11">
          <mxGeometry width="50" height="50" relative="1" as="geometry">
            <mxPoint x="320" y="680" as="sourcePoint" />
            <mxPoint x="370" y="630" as="targetPoint" />
          </mxGeometry>
        </mxCell>
        <mxCell id="id-Jjma-5_dawjfT9T-a-45" value="provide" style="text;html=1;strokeColor=none;fillColor=none;align=center;verticalAlign=middle;whiteSpace=wrap;rounded=0;fontSize=16;fontColor=#000000;" vertex="1" parent="1">
          <mxGeometry x="496.5" y="535" width="60" height="30" as="geometry" />
        </mxCell>
        <mxCell id="id-Jjma-5_dawjfT9T-a-46" value="provide" style="text;html=1;strokeColor=none;fillColor=none;align=center;verticalAlign=middle;whiteSpace=wrap;rounded=0;fontSize=16;fontColor=#000000;" vertex="1" parent="1">
          <mxGeometry x="140" y="530" width="60" height="30" as="geometry" />
        </mxCell>
        <mxCell id="id-Jjma-5_dawjfT9T-a-47" value="" style="endArrow=classic;html=1;rounded=0;fontSize=16;fontColor=#000000;" edge="1" parent="1" source="id-Jjma-5_dawjfT9T-a-18" target="id-Jjma-5_dawjfT9T-a-10">
          <mxGeometry width="50" height="50" relative="1" as="geometry">
            <mxPoint x="320" y="580" as="sourcePoint" />
            <mxPoint x="370" y="530" as="targetPoint" />
          </mxGeometry>
        </mxCell>
      </root>
    </mxGraphModel>
  </diagram>
</mxfile>
